TITLE ""
FILE "TOEIC LR Kinnojyukugo_05.mp3" MP3
  TRACK 01 AUDIO
    TITLE "TOEIC LR Kinnojyukugo_05_001"
    INDEX 01 00:00:00
  TRACK 02 AUDIO
    TITLE "TOEIC LR Kinnojyukugo_05_002"
    INDEX 01 00:00:12
  TRACK 03 AUDIO
    TITLE "TOEIC LR Kinnojyukugo_05_003"
    INDEX 01 00:01:55
  TRACK 04 AUDIO
    TITLE "TOEIC LR Kinnojyukugo_05_004"
    INDEX 01 00:02:17
  TRACK 05 AUDIO
    TITLE "TOEIC LR Kinnojyukugo_05_005"
    INDEX 01 00:03:46
  TRACK 06 AUDIO
    TITLE "TOEIC LR Kinnojyukugo_05_006"
    INDEX 01 00:04:12
  TRACK 07 AUDIO
    TITLE "TOEIC LR Kinnojyukugo_05_007"
    INDEX 01 00:06:19
  TRACK 08 AUDIO
    TITLE "TOEIC LR Kinnojyukugo_05_008"
    INDEX 01 00:06:58
  TRACK 09 AUDIO
    TITLE "TOEIC LR Kinnojyukugo_05_009"
    INDEX 01 00:08:65
  TRACK 10 AUDIO
    TITLE "TOEIC LR Kinnojyukugo_05_010"
    INDEX 01 00:09:13
  TRACK 11 AUDIO
    TITLE "TOEIC LR Kinnojyukugo_05_011"
    INDEX 01 00:11:18
  TRACK 12 AUDIO
    TITLE "TOEIC LR Kinnojyukugo_05_012"
    INDEX 01 00:12:19
  TRACK 13 AUDIO
    TITLE "TOEIC LR Kinnojyukugo_05_013"
    INDEX 01 00:13:74
  TRACK 14 AUDIO
    TITLE "TOEIC LR Kinnojyukugo_05_014"
    INDEX 01 00:14:40
  TRACK 15 AUDIO
    TITLE "TOEIC LR Kinnojyukugo_05_015"
    INDEX 01 00:15:63
  TRACK 16 AUDIO
    TITLE "TOEIC LR Kinnojyukugo_05_016"
    INDEX 01 00:16:27
  TRACK 17 AUDIO
    TITLE "TOEIC LR Kinnojyukugo_05_017"
    INDEX 01 00:17:70
  TRACK 18 AUDIO
    TITLE "TOEIC LR Kinnojyukugo_05_018"
    INDEX 01 00:18:32
  TRACK 19 AUDIO
    TITLE "TOEIC LR Kinnojyukugo_05_019"
    INDEX 01 00:20:70
  TRACK 20 AUDIO
    TITLE "TOEIC LR Kinnojyukugo_05_020"
    INDEX 01 00:21:20
  TRACK 21 AUDIO
    TITLE "TOEIC LR Kinnojyukugo_05_021"
    INDEX 01 00:23:56
  TRACK 22 AUDIO
    TITLE "TOEIC LR Kinnojyukugo_05_022"
    INDEX 01 00:24:58
  TRACK 23 AUDIO
    TITLE "TOEIC LR Kinnojyukugo_05_023"
    INDEX 01 00:26:23
  TRACK 24 AUDIO
    TITLE "TOEIC LR Kinnojyukugo_05_024"
    INDEX 01 00:26:63
  TRACK 25 AUDIO
    TITLE "TOEIC LR Kinnojyukugo_05_025"
    INDEX 01 00:28:34
  TRACK 26 AUDIO
    TITLE "TOEIC LR Kinnojyukugo_05_026"
    INDEX 01 00:28:71
  TRACK 27 AUDIO
    TITLE "TOEIC LR Kinnojyukugo_05_027"
    INDEX 01 00:31:21
  TRACK 28 AUDIO
    TITLE "TOEIC LR Kinnojyukugo_05_028"
    INDEX 01 00:31:62
  TRACK 29 AUDIO
    TITLE "TOEIC LR Kinnojyukugo_05_029"
    INDEX 01 00:34:17
  TRACK 30 AUDIO
    TITLE "TOEIC LR Kinnojyukugo_05_030"
    INDEX 01 00:34:44
  TRACK 31 AUDIO
    TITLE "TOEIC LR Kinnojyukugo_05_031"
    INDEX 01 00:37:00
  TRACK 32 AUDIO
    TITLE "TOEIC LR Kinnojyukugo_05_032"
    INDEX 01 00:37:74
  TRACK 33 AUDIO
    TITLE "TOEIC LR Kinnojyukugo_05_033"
    INDEX 01 00:39:32
  TRACK 34 AUDIO
    TITLE "TOEIC LR Kinnojyukugo_05_034"
    INDEX 01 00:39:69
  TRACK 35 AUDIO
    TITLE "TOEIC LR Kinnojyukugo_05_035"
    INDEX 01 00:41:27
  TRACK 36 AUDIO
    TITLE "TOEIC LR Kinnojyukugo_05_036"
    INDEX 01 00:41:66
  TRACK 37 AUDIO
    TITLE "TOEIC LR Kinnojyukugo_05_037"
    INDEX 01 00:43:45
  TRACK 38 AUDIO
    TITLE "TOEIC LR Kinnojyukugo_05_038"
    INDEX 01 00:44:08
  TRACK 39 AUDIO
    TITLE "TOEIC LR Kinnojyukugo_05_039"
    INDEX 01 00:45:72
  TRACK 40 AUDIO
    TITLE "TOEIC LR Kinnojyukugo_05_040"
    INDEX 01 00:46:22
  TRACK 41 AUDIO
    TITLE "TOEIC LR Kinnojyukugo_05_041"
    INDEX 01 00:48:13
  TRACK 42 AUDIO
    TITLE "TOEIC LR Kinnojyukugo_05_042"
    INDEX 01 00:49:13
  TRACK 43 AUDIO
    TITLE "TOEIC LR Kinnojyukugo_05_043"
    INDEX 01 00:50:34
  TRACK 44 AUDIO
    TITLE "TOEIC LR Kinnojyukugo_05_044"
    INDEX 01 00:50:71
  TRACK 45 AUDIO
    TITLE "TOEIC LR Kinnojyukugo_05_045"
    INDEX 01 00:53:73
  TRACK 46 AUDIO
    TITLE "TOEIC LR Kinnojyukugo_05_046"
    INDEX 01 00:54:39
  TRACK 47 AUDIO
    TITLE "TOEIC LR Kinnojyukugo_05_047"
    INDEX 01 00:56:56
  TRACK 48 AUDIO
    TITLE "TOEIC LR Kinnojyukugo_05_048"
    INDEX 01 00:57:22
  TRACK 49 AUDIO
    TITLE "TOEIC LR Kinnojyukugo_05_049"
    INDEX 01 00:59:17
  TRACK 50 AUDIO
    TITLE "TOEIC LR Kinnojyukugo_05_050"
    INDEX 01 00:59:48
  TRACK 51 AUDIO
    TITLE "TOEIC LR Kinnojyukugo_05_051"
    INDEX 01 01:01:43
  TRACK 52 AUDIO
    TITLE "TOEIC LR Kinnojyukugo_05_052"
    INDEX 01 01:02:45
  TRACK 53 AUDIO
    TITLE "TOEIC LR Kinnojyukugo_05_053"
    INDEX 01 01:04:49
  TRACK 54 AUDIO
    TITLE "TOEIC LR Kinnojyukugo_05_054"
    INDEX 01 01:05:12
  TRACK 55 AUDIO
    TITLE "TOEIC LR Kinnojyukugo_05_055"
    INDEX 01 01:07:58
  TRACK 56 AUDIO
    TITLE "TOEIC LR Kinnojyukugo_05_056"
    INDEX 01 01:08:20
  TRACK 57 AUDIO
    TITLE "TOEIC LR Kinnojyukugo_05_057"
    INDEX 01 01:11:65
  TRACK 58 AUDIO
    TITLE "TOEIC LR Kinnojyukugo_05_058"
    INDEX 01 01:12:29
  TRACK 59 AUDIO
    TITLE "TOEIC LR Kinnojyukugo_05_059"
    INDEX 01 01:15:10
  TRACK 60 AUDIO
    TITLE "TOEIC LR Kinnojyukugo_05_060"
    INDEX 01 01:15:38
  TRACK 61 AUDIO
    TITLE "TOEIC LR Kinnojyukugo_05_061"
    INDEX 01 01:18:16
  TRACK 62 AUDIO
    TITLE "TOEIC LR Kinnojyukugo_05_062"
    INDEX 01 01:19:16
  TRACK 63 AUDIO
    TITLE "TOEIC LR Kinnojyukugo_05_063"
    INDEX 01 01:20:35
  TRACK 64 AUDIO
    TITLE "TOEIC LR Kinnojyukugo_05_064"
    INDEX 01 01:20:70
  TRACK 65 AUDIO
    TITLE "TOEIC LR Kinnojyukugo_05_065"
    INDEX 01 01:22:28
  TRACK 66 AUDIO
    TITLE "TOEIC LR Kinnojyukugo_05_066"
    INDEX 01 01:22:65
  TRACK 67 AUDIO
    TITLE "TOEIC LR Kinnojyukugo_05_067"
    INDEX 01 01:24:44
  TRACK 68 AUDIO
    TITLE "TOEIC LR Kinnojyukugo_05_068"
    INDEX 01 01:25:07
  TRACK 69 AUDIO
    TITLE "TOEIC LR Kinnojyukugo_05_069"
    INDEX 01 01:26:65
  TRACK 70 AUDIO
    TITLE "TOEIC LR Kinnojyukugo_05_070"
    INDEX 01 01:27:15
  TRACK 71 AUDIO
    TITLE "TOEIC LR Kinnojyukugo_05_071"
    INDEX 01 01:28:72
  TRACK 72 AUDIO
    TITLE "TOEIC LR Kinnojyukugo_05_072"
    INDEX 01 01:29:73
  TRACK 73 AUDIO
    TITLE "TOEIC LR Kinnojyukugo_05_073"
    INDEX 01 01:31:13
  TRACK 74 AUDIO
    TITLE "TOEIC LR Kinnojyukugo_05_074"
    INDEX 01 01:31:52
  TRACK 75 AUDIO
    TITLE "TOEIC LR Kinnojyukugo_05_075"
    INDEX 01 01:33:57
  TRACK 76 AUDIO
    TITLE "TOEIC LR Kinnojyukugo_05_076"
    INDEX 01 01:34:23
  TRACK 77 AUDIO
    TITLE "TOEIC LR Kinnojyukugo_05_077"
    INDEX 01 01:37:10
  TRACK 78 AUDIO
    TITLE "TOEIC LR Kinnojyukugo_05_078"
    INDEX 01 01:37:57
  TRACK 79 AUDIO
    TITLE "TOEIC LR Kinnojyukugo_05_079"
    INDEX 01 01:40:26
  TRACK 80 AUDIO
    TITLE "TOEIC LR Kinnojyukugo_05_080"
    INDEX 01 01:40:49
  TRACK 81 AUDIO
    TITLE "TOEIC LR Kinnojyukugo_05_081"
    INDEX 01 01:43:18
  TRACK 82 AUDIO
    TITLE "TOEIC LR Kinnojyukugo_05_082"
    INDEX 01 01:44:18
  TRACK 83 AUDIO
    TITLE "TOEIC LR Kinnojyukugo_05_083"
    INDEX 01 01:45:48
  TRACK 84 AUDIO
    TITLE "TOEIC LR Kinnojyukugo_05_084"
    INDEX 01 01:46:11
  TRACK 85 AUDIO
    TITLE "TOEIC LR Kinnojyukugo_05_085"
    INDEX 01 01:47:49
  TRACK 86 AUDIO
    TITLE "TOEIC LR Kinnojyukugo_05_086"
    INDEX 01 01:48:10
  TRACK 87 AUDIO
    TITLE "TOEIC LR Kinnojyukugo_05_087"
    INDEX 01 01:51:14
  TRACK 88 AUDIO
    TITLE "TOEIC LR Kinnojyukugo_05_088"
    INDEX 01 01:51:57
  TRACK 89 AUDIO
    TITLE "TOEIC LR Kinnojyukugo_05_089"
    INDEX 01 01:54:26
  TRACK 90 AUDIO
    TITLE "TOEIC LR Kinnojyukugo_05_090"
    INDEX 01 01:54:49
  TRACK 91 AUDIO
    TITLE "TOEIC LR Kinnojyukugo_05_091"
    INDEX 01 01:57:18
  TRACK 92 AUDIO
    TITLE "TOEIC LR Kinnojyukugo_05_092"
    INDEX 01 01:58:18
  TRACK 93 AUDIO
    TITLE "TOEIC LR Kinnojyukugo_05_093"
    INDEX 01 01:59:31
  TRACK 94 AUDIO
    TITLE "TOEIC LR Kinnojyukugo_05_094"
    INDEX 01 01:59:68
  TRACK 95 AUDIO
    TITLE "TOEIC LR Kinnojyukugo_05_095"
    INDEX 01 02:01:28
  TRACK 96 AUDIO
    TITLE "TOEIC LR Kinnojyukugo_05_096"
    INDEX 01 02:01:61
  TRACK 97 AUDIO
    TITLE "TOEIC LR Kinnojyukugo_05_097"
    INDEX 01 02:04:26
  TRACK 98 AUDIO
    TITLE "TOEIC LR Kinnojyukugo_05_098"
    INDEX 01 02:04:63
  TRACK 99 AUDIO
    TITLE "TOEIC LR Kinnojyukugo_05_099"
    INDEX 01 02:07:11
  TRACK 100 AUDIO
    TITLE "TOEIC LR Kinnojyukugo_05_100"
    INDEX 01 02:07:44
  TRACK 101 AUDIO
    TITLE "TOEIC LR Kinnojyukugo_05_101"
    INDEX 01 02:09:67
  TRACK 102 AUDIO
    TITLE "TOEIC LR Kinnojyukugo_05_102"
    INDEX 01 02:11:03
  TRACK 103 AUDIO
    TITLE "TOEIC LR Kinnojyukugo_05_103"
    INDEX 01 02:13:10
  TRACK 104 AUDIO
    TITLE "TOEIC LR Kinnojyukugo_05_104"
    INDEX 01 02:13:51
  TRACK 105 AUDIO
    TITLE "TOEIC LR Kinnojyukugo_05_105"
    INDEX 01 02:15:67
  TRACK 106 AUDIO
    TITLE "TOEIC LR Kinnojyukugo_05_106"
    INDEX 01 02:16:31
  TRACK 107 AUDIO
    TITLE "TOEIC LR Kinnojyukugo_05_107"
    INDEX 01 02:19:28
  TRACK 108 AUDIO
    TITLE "TOEIC LR Kinnojyukugo_05_108"
    INDEX 01 02:19:65
  TRACK 109 AUDIO
    TITLE "TOEIC LR Kinnojyukugo_05_109"
    INDEX 01 02:22:36
  TRACK 110 AUDIO
    TITLE "TOEIC LR Kinnojyukugo_05_110"
    INDEX 01 02:22:61
  TRACK 111 AUDIO
    TITLE "TOEIC LR Kinnojyukugo_05_111"
    INDEX 01 02:25:34
  TRACK 112 AUDIO
    TITLE "TOEIC LR Kinnojyukugo_05_112"
    INDEX 01 02:26:36
  TRACK 113 AUDIO
    TITLE "TOEIC LR Kinnojyukugo_05_113"
    INDEX 01 02:27:64
  TRACK 114 AUDIO
    TITLE "TOEIC LR Kinnojyukugo_05_114"
    INDEX 01 02:28:27
  TRACK 115 AUDIO
    TITLE "TOEIC LR Kinnojyukugo_05_115"
    INDEX 01 02:30:16
  TRACK 116 AUDIO
    TITLE "TOEIC LR Kinnojyukugo_05_116"
    INDEX 01 02:30:57
  TRACK 117 AUDIO
    TITLE "TOEIC LR Kinnojyukugo_05_117"
    INDEX 01 02:33:02
  TRACK 118 AUDIO
    TITLE "TOEIC LR Kinnojyukugo_05_118"
    INDEX 01 02:33:40
  TRACK 119 AUDIO
    TITLE "TOEIC LR Kinnojyukugo_05_119"
    INDEX 01 02:35:40
  TRACK 120 AUDIO
    TITLE "TOEIC LR Kinnojyukugo_05_120"
    INDEX 01 02:35:66
  TRACK 121 AUDIO
    TITLE "TOEIC LR Kinnojyukugo_05_121"
    INDEX 01 02:37:65
  TRACK 122 AUDIO
    TITLE "TOEIC LR Kinnojyukugo_05_122"
    INDEX 01 02:38:64
  TRACK 123 AUDIO
    TITLE "TOEIC LR Kinnojyukugo_05_123"
    INDEX 01 02:41:06
  TRACK 124 AUDIO
    TITLE "TOEIC LR Kinnojyukugo_05_124"
    INDEX 01 02:41:41
  TRACK 125 AUDIO
    TITLE "TOEIC LR Kinnojyukugo_05_125"
    INDEX 01 02:43:46
  TRACK 126 AUDIO
    TITLE "TOEIC LR Kinnojyukugo_05_126"
    INDEX 01 02:44:12
  TRACK 127 AUDIO
    TITLE "TOEIC LR Kinnojyukugo_05_127"
    INDEX 01 02:46:32
  TRACK 128 AUDIO
    TITLE "TOEIC LR Kinnojyukugo_05_128"
    INDEX 01 02:47:01
  TRACK 129 AUDIO
    TITLE "TOEIC LR Kinnojyukugo_05_129"
    INDEX 01 02:49:17
  TRACK 130 AUDIO
    TITLE "TOEIC LR Kinnojyukugo_05_130"
    INDEX 01 02:49:43
  TRACK 131 AUDIO
    TITLE "TOEIC LR Kinnojyukugo_05_131"
    INDEX 01 02:51:59
  TRACK 132 AUDIO
    TITLE "TOEIC LR Kinnojyukugo_05_132"
    INDEX 01 02:52:70
  TRACK 133 AUDIO
    TITLE "TOEIC LR Kinnojyukugo_05_133"
    INDEX 01 02:55:20
  TRACK 134 AUDIO
    TITLE "TOEIC LR Kinnojyukugo_05_134"
    INDEX 01 02:55:57
  TRACK 135 AUDIO
    TITLE "TOEIC LR Kinnojyukugo_05_135"
    INDEX 01 02:56:72
  TRACK 136 AUDIO
    TITLE "TOEIC LR Kinnojyukugo_05_136"
    INDEX 01 02:57:36
  TRACK 137 AUDIO
    TITLE "TOEIC LR Kinnojyukugo_05_137"
    INDEX 01 02:59:25
  TRACK 138 AUDIO
    TITLE "TOEIC LR Kinnojyukugo_05_138"
    INDEX 01 02:59:68
  TRACK 139 AUDIO
    TITLE "TOEIC LR Kinnojyukugo_05_139"
    INDEX 01 03:04:09
  TRACK 140 AUDIO
    TITLE "TOEIC LR Kinnojyukugo_05_140"
    INDEX 01 03:04:32
  TRACK 141 AUDIO
    TITLE "TOEIC LR Kinnojyukugo_05_141"
    INDEX 01 03:08:50
  TRACK 142 AUDIO
    TITLE "TOEIC LR Kinnojyukugo_05_142"
    INDEX 01 03:09:53
  TRACK 143 AUDIO
    TITLE "TOEIC LR Kinnojyukugo_05_143"
    INDEX 01 03:10:68
  TRACK 144 AUDIO
    TITLE "TOEIC LR Kinnojyukugo_05_144"
    INDEX 01 03:11:30
  TRACK 145 AUDIO
    TITLE "TOEIC LR Kinnojyukugo_05_145"
    INDEX 01 03:14:17
  TRACK 146 AUDIO
    TITLE "TOEIC LR Kinnojyukugo_05_146"
    INDEX 01 03:14:56
  TRACK 147 AUDIO
    TITLE "TOEIC LR Kinnojyukugo_05_147"
    INDEX 01 03:16:36
  TRACK 148 AUDIO
    TITLE "TOEIC LR Kinnojyukugo_05_148"
    INDEX 01 03:17:08
  TRACK 149 AUDIO
    TITLE "TOEIC LR Kinnojyukugo_05_149"
    INDEX 01 03:18:70
  TRACK 150 AUDIO
    TITLE "TOEIC LR Kinnojyukugo_05_150"
    INDEX 01 03:19:20
  TRACK 151 AUDIO
    TITLE "TOEIC LR Kinnojyukugo_05_151"
    INDEX 01 03:21:07
  TRACK 152 AUDIO
    TITLE "TOEIC LR Kinnojyukugo_05_152"
    INDEX 01 03:22:05
  TRACK 153 AUDIO
    TITLE "TOEIC LR Kinnojyukugo_05_153"
    INDEX 01 03:23:45
  TRACK 154 AUDIO
    TITLE "TOEIC LR Kinnojyukugo_05_154"
    INDEX 01 03:24:08
  TRACK 155 AUDIO
    TITLE "TOEIC LR Kinnojyukugo_05_155"
    INDEX 01 03:26:67
  TRACK 156 AUDIO
    TITLE "TOEIC LR Kinnojyukugo_05_156"
    INDEX 01 03:27:37
  TRACK 157 AUDIO
    TITLE "TOEIC LR Kinnojyukugo_05_157"
    INDEX 01 03:29:17
  TRACK 158 AUDIO
    TITLE "TOEIC LR Kinnojyukugo_05_158"
    INDEX 01 03:29:56
  TRACK 159 AUDIO
    TITLE "TOEIC LR Kinnojyukugo_05_159"
    INDEX 01 03:31:66
  TRACK 160 AUDIO
    TITLE "TOEIC LR Kinnojyukugo_05_160"
    INDEX 01 03:32:15
  TRACK 161 AUDIO
    TITLE "TOEIC LR Kinnojyukugo_05_161"
    INDEX 01 03:34:26
  TRACK 162 AUDIO
    TITLE "TOEIC LR Kinnojyukugo_05_162"
    INDEX 01 03:35:25
  TRACK 163 AUDIO
    TITLE "TOEIC LR Kinnojyukugo_05_163"
    INDEX 01 03:36:60
  TRACK 164 AUDIO
    TITLE "TOEIC LR Kinnojyukugo_05_164"
    INDEX 01 03:37:28
  TRACK 165 AUDIO
    TITLE "TOEIC LR Kinnojyukugo_05_165"
    INDEX 01 03:40:44
  TRACK 166 AUDIO
    TITLE "TOEIC LR Kinnojyukugo_05_166"
    INDEX 01 03:41:08
  TRACK 167 AUDIO
    TITLE "TOEIC LR Kinnojyukugo_05_167"
    INDEX 01 03:43:36
  TRACK 168 AUDIO
    TITLE "TOEIC LR Kinnojyukugo_05_168"
    INDEX 01 03:43:72
  TRACK 169 AUDIO
    TITLE "TOEIC LR Kinnojyukugo_05_169"
    INDEX 01 03:46:27
  TRACK 170 AUDIO
    TITLE "TOEIC LR Kinnojyukugo_05_170"
    INDEX 01 03:46:52
  TRACK 171 AUDIO
    TITLE "TOEIC LR Kinnojyukugo_05_171"
    INDEX 01 03:49:06
  TRACK 172 AUDIO
    TITLE "TOEIC LR Kinnojyukugo_05_172"
    INDEX 01 03:50:07
  TRACK 173 AUDIO
    TITLE "TOEIC LR Kinnojyukugo_05_173"
    INDEX 01 03:52:18
  TRACK 174 AUDIO
    TITLE "TOEIC LR Kinnojyukugo_05_174"
    INDEX 01 03:52:57
  TRACK 175 AUDIO
    TITLE "TOEIC LR Kinnojyukugo_05_175"
    INDEX 01 03:54:52
  TRACK 176 AUDIO
    TITLE "TOEIC LR Kinnojyukugo_05_176"
    INDEX 01 03:55:18
  TRACK 177 AUDIO
    TITLE "TOEIC LR Kinnojyukugo_05_177"
    INDEX 01 03:57:66
  TRACK 178 AUDIO
    TITLE "TOEIC LR Kinnojyukugo_05_178"
    INDEX 01 03:58:30
  TRACK 179 AUDIO
    TITLE "TOEIC LR Kinnojyukugo_05_179"
    INDEX 01 04:00:68
  TRACK 180 AUDIO
    TITLE "TOEIC LR Kinnojyukugo_05_180"
    INDEX 01 04:01:17
  TRACK 181 AUDIO
    TITLE "TOEIC LR Kinnojyukugo_05_181"
    INDEX 01 04:03:55
  TRACK 182 AUDIO
    TITLE "TOEIC LR Kinnojyukugo_05_182"
    INDEX 01 04:04:54
  TRACK 183 AUDIO
    TITLE "TOEIC LR Kinnojyukugo_05_183"
    INDEX 01 04:06:14
  TRACK 184 AUDIO
    TITLE "TOEIC LR Kinnojyukugo_05_184"
    INDEX 01 04:06:53
  TRACK 185 AUDIO
    TITLE "TOEIC LR Kinnojyukugo_05_185"
    INDEX 01 04:10:61
  TRACK 186 AUDIO
    TITLE "TOEIC LR Kinnojyukugo_05_186"
    INDEX 01 04:11:31
  TRACK 187 AUDIO
    TITLE "TOEIC LR Kinnojyukugo_05_187"
    INDEX 01 04:13:51
  TRACK 188 AUDIO
    TITLE "TOEIC LR Kinnojyukugo_05_188"
    INDEX 01 04:14:17
  TRACK 189 AUDIO
    TITLE "TOEIC LR Kinnojyukugo_05_189"
    INDEX 01 04:16:59
  TRACK 190 AUDIO
    TITLE "TOEIC LR Kinnojyukugo_05_190"
    INDEX 01 04:17:10
  TRACK 191 AUDIO
    TITLE "TOEIC LR Kinnojyukugo_05_191"
    INDEX 01 04:19:56
  TRACK 192 AUDIO
    TITLE "TOEIC LR Kinnojyukugo_05_192"
    INDEX 01 04:20:55
  TRACK 193 AUDIO
    TITLE "TOEIC LR Kinnojyukugo_05_193"
    INDEX 01 04:22:13
  TRACK 194 AUDIO
    TITLE "TOEIC LR Kinnojyukugo_05_194"
    INDEX 01 04:22:50
  TRACK 195 AUDIO
    TITLE "TOEIC LR Kinnojyukugo_05_195"
    INDEX 01 04:24:10
  TRACK 196 AUDIO
    TITLE "TOEIC LR Kinnojyukugo_05_196"
    INDEX 01 04:24:47
  TRACK 197 AUDIO
    TITLE "TOEIC LR Kinnojyukugo_05_197"
    INDEX 01 04:26:28
  TRACK 198 AUDIO
    TITLE "TOEIC LR Kinnojyukugo_05_198"
    INDEX 01 04:26:67
  TRACK 199 AUDIO
    TITLE "TOEIC LR Kinnojyukugo_05_199"
    INDEX 01 04:28:53
  TRACK 200 AUDIO
    TITLE "TOEIC LR Kinnojyukugo_05_200"
    INDEX 01 04:29:03
  TRACK 201 AUDIO
    TITLE "TOEIC LR Kinnojyukugo_05_201"
    INDEX 01 04:30:61
  TRACK 202 AUDIO
    TITLE "TOEIC LR Kinnojyukugo_05_202"
    INDEX 01 04:31:65
  TRACK 203 AUDIO
    TITLE "TOEIC LR Kinnojyukugo_05_203"
    INDEX 01 04:33:73
  TRACK 204 AUDIO
    TITLE "TOEIC LR Kinnojyukugo_05_204"
    INDEX 01 04:34:40
  TRACK 205 AUDIO
    TITLE "TOEIC LR Kinnojyukugo_05_205"
    INDEX 01 04:36:62
  TRACK 206 AUDIO
    TITLE "TOEIC LR Kinnojyukugo_05_206"
    INDEX 01 04:37:30
  TRACK 207 AUDIO
    TITLE "TOEIC LR Kinnojyukugo_05_207"
    INDEX 01 04:41:02
  TRACK 208 AUDIO
    TITLE "TOEIC LR Kinnojyukugo_05_208"
    INDEX 01 04:41:40
  TRACK 209 AUDIO
    TITLE "TOEIC LR Kinnojyukugo_05_209"
    INDEX 01 04:44:52
  TRACK 210 AUDIO
    TITLE "TOEIC LR Kinnojyukugo_05_210"
    INDEX 01 04:45:02
  TRACK 211 AUDIO
    TITLE "TOEIC LR Kinnojyukugo_05_211"
    INDEX 01 04:48:14
  TRACK 212 AUDIO
    TITLE "TOEIC LR Kinnojyukugo_05_212"
    INDEX 01 04:49:16
  TRACK 213 AUDIO
    TITLE "TOEIC LR Kinnojyukugo_05_213"
    INDEX 01 04:50:41
  TRACK 214 AUDIO
    TITLE "TOEIC LR Kinnojyukugo_05_214"
    INDEX 01 04:51:03
  TRACK 215 AUDIO
    TITLE "TOEIC LR Kinnojyukugo_05_215"
    INDEX 01 04:52:18
  TRACK 216 AUDIO
    TITLE "TOEIC LR Kinnojyukugo_05_216"
    INDEX 01 04:52:57
  TRACK 217 AUDIO
    TITLE "TOEIC LR Kinnojyukugo_05_217"
    INDEX 01 04:55:28
  TRACK 218 AUDIO
    TITLE "TOEIC LR Kinnojyukugo_05_218"
    INDEX 01 04:55:67
  TRACK 219 AUDIO
    TITLE "TOEIC LR Kinnojyukugo_05_219"
    INDEX 01 04:58:20
  TRACK 220 AUDIO
    TITLE "TOEIC LR Kinnojyukugo_05_220"
    INDEX 01 04:58:46
  TRACK 221 AUDIO
    TITLE "TOEIC LR Kinnojyukugo_05_221"
    INDEX 01 05:00:72
  TRACK 222 AUDIO
    TITLE "TOEIC LR Kinnojyukugo_05_222"
    INDEX 01 05:01:72
  TRACK 223 AUDIO
    TITLE "TOEIC LR Kinnojyukugo_05_223"
    INDEX 01 05:03:20
  TRACK 224 AUDIO
    TITLE "TOEIC LR Kinnojyukugo_05_224"
    INDEX 01 05:03:57
  TRACK 225 AUDIO
    TITLE "TOEIC LR Kinnojyukugo_05_225"
    INDEX 01 05:04:68
  TRACK 226 AUDIO
    TITLE "TOEIC LR Kinnojyukugo_05_226"
    INDEX 01 05:05:32
  TRACK 227 AUDIO
    TITLE "TOEIC LR Kinnojyukugo_05_227"
    INDEX 01 05:06:59
  TRACK 228 AUDIO
    TITLE "TOEIC LR Kinnojyukugo_05_228"
    INDEX 01 05:07:23
  TRACK 229 AUDIO
    TITLE "TOEIC LR Kinnojyukugo_05_229"
    INDEX 01 05:09:40
  TRACK 230 AUDIO
    TITLE "TOEIC LR Kinnojyukugo_05_230"
    INDEX 01 05:09:67
  TRACK 231 AUDIO
    TITLE "TOEIC LR Kinnojyukugo_05_231"
    INDEX 01 05:12:09
  TRACK 232 AUDIO
    TITLE "TOEIC LR Kinnojyukugo_05_232"
    INDEX 01 05:13:08
  TRACK 233 AUDIO
    TITLE "TOEIC LR Kinnojyukugo_05_233"
    INDEX 01 05:14:31
  TRACK 234 AUDIO
    TITLE "TOEIC LR Kinnojyukugo_05_234"
    INDEX 01 05:14:68
  TRACK 235 AUDIO
    TITLE "TOEIC LR Kinnojyukugo_05_235"
    INDEX 01 05:16:05
  TRACK 236 AUDIO
    TITLE "TOEIC LR Kinnojyukugo_05_236"
    INDEX 01 05:16:44
  TRACK 237 AUDIO
    TITLE "TOEIC LR Kinnojyukugo_05_237"
    INDEX 01 05:19:01
  TRACK 238 AUDIO
    TITLE "TOEIC LR Kinnojyukugo_05_238"
    INDEX 01 05:19:40
  TRACK 239 AUDIO
    TITLE "TOEIC LR Kinnojyukugo_05_239"
    INDEX 01 05:22:01
  TRACK 240 AUDIO
    TITLE "TOEIC LR Kinnojyukugo_05_240"
    INDEX 01 05:22:25
  TRACK 241 AUDIO
    TITLE "TOEIC LR Kinnojyukugo_05_241"
    INDEX 01 05:24:61
  TRACK 242 AUDIO
    TITLE "TOEIC LR Kinnojyukugo_05_242"
    INDEX 01 05:25:60
  TRACK 243 AUDIO
    TITLE "TOEIC LR Kinnojyukugo_05_243"
    INDEX 01 05:28:08
  TRACK 244 AUDIO
    TITLE "TOEIC LR Kinnojyukugo_05_244"
    INDEX 01 05:28:47
  TRACK 245 AUDIO
    TITLE "TOEIC LR Kinnojyukugo_05_245"
    INDEX 01 05:30:56
  TRACK 246 AUDIO
    TITLE "TOEIC LR Kinnojyukugo_05_246"
    INDEX 01 05:31:16
  TRACK 247 AUDIO
    TITLE "TOEIC LR Kinnojyukugo_05_247"
    INDEX 01 05:34:03
  TRACK 248 AUDIO
    TITLE "TOEIC LR Kinnojyukugo_05_248"
    INDEX 01 05:34:40
  TRACK 249 AUDIO
    TITLE "TOEIC LR Kinnojyukugo_05_249"
    INDEX 01 05:37:44
  TRACK 250 AUDIO
    TITLE "TOEIC LR Kinnojyukugo_05_250"
    INDEX 01 05:37:70
  TRACK 251 AUDIO
    TITLE "TOEIC LR Kinnojyukugo_05_251"
    INDEX 01 05:40:74
  TRACK 252 AUDIO
    TITLE "TOEIC LR Kinnojyukugo_05_252"
    INDEX 01 05:42:00
  TRACK 253 AUDIO
    TITLE "TOEIC LR Kinnojyukugo_05_253"
    INDEX 01 05:43:21
  TRACK 254 AUDIO
    TITLE "TOEIC LR Kinnojyukugo_05_254"
    INDEX 01 05:43:60
  TRACK 255 AUDIO
    TITLE "TOEIC LR Kinnojyukugo_05_255"
    INDEX 01 05:45:26
  TRACK 256 AUDIO
    TITLE "TOEIC LR Kinnojyukugo_05_256"
    INDEX 01 05:45:59
  TRACK 257 AUDIO
    TITLE "TOEIC LR Kinnojyukugo_05_257"
    INDEX 01 05:49:08
  TRACK 258 AUDIO
    TITLE "TOEIC LR Kinnojyukugo_05_258"
    INDEX 01 05:49:47
  TRACK 259 AUDIO
    TITLE "TOEIC LR Kinnojyukugo_05_259"
    INDEX 01 05:52:24
  TRACK 260 AUDIO
    TITLE "TOEIC LR Kinnojyukugo_05_260"
    INDEX 01 05:52:49
  TRACK 261 AUDIO
    TITLE "TOEIC LR Kinnojyukugo_05_261"
    INDEX 01 05:55:26
  TRACK 262 AUDIO
    TITLE "TOEIC LR Kinnojyukugo_05_262"
    INDEX 01 05:56:28
  TRACK 263 AUDIO
    TITLE "TOEIC LR Kinnojyukugo_05_263"
    INDEX 01 05:57:39
  TRACK 264 AUDIO
    TITLE "TOEIC LR Kinnojyukugo_05_264"
    INDEX 01 05:57:74
  TRACK 265 AUDIO
    TITLE "TOEIC LR Kinnojyukugo_05_265"
    INDEX 01 05:59:26
  TRACK 266 AUDIO
    TITLE "TOEIC LR Kinnojyukugo_05_266"
    INDEX 01 05:59:63
  TRACK 267 AUDIO
    TITLE "TOEIC LR Kinnojyukugo_05_267"
    INDEX 01 06:01:72
  TRACK 268 AUDIO
    TITLE "TOEIC LR Kinnojyukugo_05_268"
    INDEX 01 06:02:34
  TRACK 269 AUDIO
    TITLE "TOEIC LR Kinnojyukugo_05_269"
    INDEX 01 06:04:43
  TRACK 270 AUDIO
    TITLE "TOEIC LR Kinnojyukugo_05_270"
    INDEX 01 06:04:68
  TRACK 271 AUDIO
    TITLE "TOEIC LR Kinnojyukugo_05_271"
    INDEX 01 06:07:00
  TRACK 272 AUDIO
    TITLE "TOEIC LR Kinnojyukugo_05_272"
    INDEX 01 06:08:00
  TRACK 273 AUDIO
    TITLE "TOEIC LR Kinnojyukugo_05_273"
    INDEX 01 06:09:28
  TRACK 274 AUDIO
    TITLE "TOEIC LR Kinnojyukugo_05_274"
    INDEX 01 06:09:70
  TRACK 275 AUDIO
    TITLE "TOEIC LR Kinnojyukugo_05_275"
    INDEX 01 06:11:27
  TRACK 276 AUDIO
    TITLE "TOEIC LR Kinnojyukugo_05_276"
    INDEX 01 06:11:64
  TRACK 277 AUDIO
    TITLE "TOEIC LR Kinnojyukugo_05_277"
    INDEX 01 06:14:06
  TRACK 278 AUDIO
    TITLE "TOEIC LR Kinnojyukugo_05_278"
    INDEX 01 06:14:43
  TRACK 279 AUDIO
    TITLE "TOEIC LR Kinnojyukugo_05_279"
    INDEX 01 06:16:54
  TRACK 280 AUDIO
    TITLE "TOEIC LR Kinnojyukugo_05_280"
    INDEX 01 06:17:02
  TRACK 281 AUDIO
    TITLE "TOEIC LR Kinnojyukugo_05_281"
    INDEX 01 06:19:13
  TRACK 282 AUDIO
    TITLE "TOEIC LR Kinnojyukugo_05_282"
    INDEX 01 06:20:13
  TRACK 283 AUDIO
    TITLE "TOEIC LR Kinnojyukugo_05_283"
    INDEX 01 06:21:35
  TRACK 284 AUDIO
    TITLE "TOEIC LR Kinnojyukugo_05_284"
    INDEX 01 06:21:73
  TRACK 285 AUDIO
    TITLE "TOEIC LR Kinnojyukugo_05_285"
    INDEX 01 06:23:30
  TRACK 286 AUDIO
    TITLE "TOEIC LR Kinnojyukugo_05_286"
    INDEX 01 06:23:72
  TRACK 287 AUDIO
    TITLE "TOEIC LR Kinnojyukugo_05_287"
    INDEX 01 06:25:61
  TRACK 288 AUDIO
    TITLE "TOEIC LR Kinnojyukugo_05_288"
    INDEX 01 06:26:23
  TRACK 289 AUDIO
    TITLE "TOEIC LR Kinnojyukugo_05_289"
    INDEX 01 06:28:22
  TRACK 290 AUDIO
    TITLE "TOEIC LR Kinnojyukugo_05_290"
    INDEX 01 06:28:45
  TRACK 291 AUDIO
    TITLE "TOEIC LR Kinnojyukugo_05_291"
    INDEX 01 06:30:42
  TRACK 292 AUDIO
    TITLE "TOEIC LR Kinnojyukugo_05_292"
    INDEX 01 06:31:42
  TRACK 293 AUDIO
    TITLE "TOEIC LR Kinnojyukugo_05_293"
    INDEX 01 06:32:55
  TRACK 294 AUDIO
    TITLE "TOEIC LR Kinnojyukugo_05_294"
    INDEX 01 06:33:17
  TRACK 295 AUDIO
    TITLE "TOEIC LR Kinnojyukugo_05_295"
    INDEX 01 06:34:46
  TRACK 296 AUDIO
    TITLE "TOEIC LR Kinnojyukugo_05_296"
    INDEX 01 06:35:10
  TRACK 297 AUDIO
    TITLE "TOEIC LR Kinnojyukugo_05_297"
    INDEX 01 06:37:25
  TRACK 298 AUDIO
    TITLE "TOEIC LR Kinnojyukugo_05_298"
    INDEX 01 06:37:66
  TRACK 299 AUDIO
    TITLE "TOEIC LR Kinnojyukugo_05_299"
    INDEX 01 06:40:29
  TRACK 300 AUDIO
    TITLE "TOEIC LR Kinnojyukugo_05_300"
    INDEX 01 06:40:52
  TRACK 301 AUDIO
    TITLE "TOEIC LR Kinnojyukugo_05_301"
    INDEX 01 06:43:15
  TRACK 302 AUDIO
    TITLE "TOEIC LR Kinnojyukugo_05_302"
    INDEX 01 06:44:15
  TRACK 303 AUDIO
    TITLE "TOEIC LR Kinnojyukugo_05_303"
    INDEX 01 06:45:32
  TRACK 304 AUDIO
    TITLE "TOEIC LR Kinnojyukugo_05_304"
    INDEX 01 06:45:67
  TRACK 305 AUDIO
    TITLE "TOEIC LR Kinnojyukugo_05_305"
    INDEX 01 06:47:25
  TRACK 306 AUDIO
    TITLE "TOEIC LR Kinnojyukugo_05_306"
    INDEX 01 06:47:62
  TRACK 307 AUDIO
    TITLE "TOEIC LR Kinnojyukugo_05_307"
    INDEX 01 06:50:00
  TRACK 308 AUDIO
    TITLE "TOEIC LR Kinnojyukugo_05_308"
    INDEX 01 06:50:39
  TRACK 309 AUDIO
    TITLE "TOEIC LR Kinnojyukugo_05_309"
    INDEX 01 06:52:67
  TRACK 310 AUDIO
    TITLE "TOEIC LR Kinnojyukugo_05_310"
    INDEX 01 06:53:18
  TRACK 311 AUDIO
    TITLE "TOEIC LR Kinnojyukugo_05_311"
    INDEX 01 06:55:44
  TRACK 312 AUDIO
    TITLE "TOEIC LR Kinnojyukugo_05_312"
    INDEX 01 06:56:48
  TRACK 313 AUDIO
    TITLE "TOEIC LR Kinnojyukugo_05_313"
    INDEX 01 06:57:63
  TRACK 314 AUDIO
    TITLE "TOEIC LR Kinnojyukugo_05_314"
    INDEX 01 06:58:25
  TRACK 315 AUDIO
    TITLE "TOEIC LR Kinnojyukugo_05_315"
    INDEX 01 07:02:03
  TRACK 316 AUDIO
    TITLE "TOEIC LR Kinnojyukugo_05_316"
    INDEX 01 07:02:42
  TRACK 317 AUDIO
    TITLE "TOEIC LR Kinnojyukugo_05_317"
    INDEX 01 07:05:62
  TRACK 318 AUDIO
    TITLE "TOEIC LR Kinnojyukugo_05_318"
    INDEX 01 07:06:30
  TRACK 319 AUDIO
    TITLE "TOEIC LR Kinnojyukugo_05_319"
    INDEX 01 07:08:70
  TRACK 320 AUDIO
    TITLE "TOEIC LR Kinnojyukugo_05_320"
    INDEX 01 07:09:21
  TRACK 321 AUDIO
    TITLE "TOEIC LR Kinnojyukugo_05_321"
    INDEX 01 07:11:63
  TRACK 322 AUDIO
    TITLE "TOEIC LR Kinnojyukugo_05_322"
    INDEX 01 07:12:60
  TRACK 323 AUDIO
    TITLE "TOEIC LR Kinnojyukugo_05_323"
    INDEX 01 07:14:00
  TRACK 324 AUDIO
    TITLE "TOEIC LR Kinnojyukugo_05_324"
    INDEX 01 07:14:40
  TRACK 325 AUDIO
    TITLE "TOEIC LR Kinnojyukugo_05_325"
    INDEX 01 07:15:59
  TRACK 326 AUDIO
    TITLE "TOEIC LR Kinnojyukugo_05_326"
    INDEX 01 07:16:23
  TRACK 327 AUDIO
    TITLE "TOEIC LR Kinnojyukugo_05_327"
    INDEX 01 07:17:67
  TRACK 328 AUDIO
    TITLE "TOEIC LR Kinnojyukugo_05_328"
    INDEX 01 07:18:30
  TRACK 329 AUDIO
    TITLE "TOEIC LR Kinnojyukugo_05_329"
    INDEX 01 07:20:40
  TRACK 330 AUDIO
    TITLE "TOEIC LR Kinnojyukugo_05_330"
    INDEX 01 07:20:68
  TRACK 331 AUDIO
    TITLE "TOEIC LR Kinnojyukugo_05_331"
    INDEX 01 07:23:01
  TRACK 332 AUDIO
    TITLE "TOEIC LR Kinnojyukugo_05_332"
    INDEX 01 07:23:74
  TRACK 333 AUDIO
    TITLE "TOEIC LR Kinnojyukugo_05_333"
    INDEX 01 07:25:26
  TRACK 334 AUDIO
    TITLE "TOEIC LR Kinnojyukugo_05_334"
    INDEX 01 07:25:63
  TRACK 335 AUDIO
    TITLE "TOEIC LR Kinnojyukugo_05_335"
    INDEX 01 07:27:09
  TRACK 336 AUDIO
    TITLE "TOEIC LR Kinnojyukugo_05_336"
    INDEX 01 07:27:50
  TRACK 337 AUDIO
    TITLE "TOEIC LR Kinnojyukugo_05_337"
    INDEX 01 07:29:51
  TRACK 338 AUDIO
    TITLE "TOEIC LR Kinnojyukugo_05_338"
    INDEX 01 07:30:15
  TRACK 339 AUDIO
    TITLE "TOEIC LR Kinnojyukugo_05_339"
    INDEX 01 07:32:47
  TRACK 340 AUDIO
    TITLE "TOEIC LR Kinnojyukugo_05_340"
    INDEX 01 07:32:73
  TRACK 341 AUDIO
    TITLE "TOEIC LR Kinnojyukugo_05_341"
    INDEX 01 07:35:28
  TRACK 342 AUDIO
    TITLE "TOEIC LR Kinnojyukugo_05_342"
    INDEX 01 07:36:31
  TRACK 343 AUDIO
    TITLE "TOEIC LR Kinnojyukugo_05_343"
    INDEX 01 07:37:41
  TRACK 344 AUDIO
    TITLE "TOEIC LR Kinnojyukugo_05_344"
    INDEX 01 07:38:03
  TRACK 345 AUDIO
    TITLE "TOEIC LR Kinnojyukugo_05_345"
    INDEX 01 07:40:31
  TRACK 346 AUDIO
    TITLE "TOEIC LR Kinnojyukugo_05_346"
    INDEX 01 07:40:70
  TRACK 347 AUDIO
    TITLE "TOEIC LR Kinnojyukugo_05_347"
    INDEX 01 07:42:61
  TRACK 348 AUDIO
    TITLE "TOEIC LR Kinnojyukugo_05_348"
    INDEX 01 07:43:26
  TRACK 349 AUDIO
    TITLE "TOEIC LR Kinnojyukugo_05_349"
    INDEX 01 07:45:24
  TRACK 350 AUDIO
    TITLE "TOEIC LR Kinnojyukugo_05_350"
    INDEX 01 07:45:48
  TRACK 351 AUDIO
    TITLE "TOEIC LR Kinnojyukugo_05_351"
    INDEX 01 07:47:47
  TRACK 352 AUDIO
    TITLE "TOEIC LR Kinnojyukugo_05_352"
    INDEX 01 07:48:44
  TRACK 353 AUDIO
    TITLE "TOEIC LR Kinnojyukugo_05_353"
    INDEX 01 07:50:00
  TRACK 354 AUDIO
    TITLE "TOEIC LR Kinnojyukugo_05_354"
    INDEX 01 07:50:41
  TRACK 355 AUDIO
    TITLE "TOEIC LR Kinnojyukugo_05_355"
    INDEX 01 07:51:70
  TRACK 356 AUDIO
    TITLE "TOEIC LR Kinnojyukugo_05_356"
    INDEX 01 07:52:34
  TRACK 357 AUDIO
    TITLE "TOEIC LR Kinnojyukugo_05_357"
    INDEX 01 07:54:31
  TRACK 358 AUDIO
    TITLE "TOEIC LR Kinnojyukugo_05_358"
    INDEX 01 07:54:70
  TRACK 359 AUDIO
    TITLE "TOEIC LR Kinnojyukugo_05_359"
    INDEX 01 07:57:22
  TRACK 360 AUDIO
    TITLE "TOEIC LR Kinnojyukugo_05_360"
    INDEX 01 07:57:47
  TRACK 361 AUDIO
    TITLE "TOEIC LR Kinnojyukugo_05_361"
    INDEX 01 08:00:01
  TRACK 362 AUDIO
    TITLE "TOEIC LR Kinnojyukugo_05_362"
    INDEX 01 08:01:00
  TRACK 363 AUDIO
    TITLE "TOEIC LR Kinnojyukugo_05_363"
    INDEX 01 08:02:74
  TRACK 364 AUDIO
    TITLE "TOEIC LR Kinnojyukugo_05_364"
    INDEX 01 08:03:40
  TRACK 365 AUDIO
    TITLE "TOEIC LR Kinnojyukugo_05_365"
    INDEX 01 08:07:06
  TRACK 366 AUDIO
    TITLE "TOEIC LR Kinnojyukugo_05_366"
    INDEX 01 08:07:46
  TRACK 367 AUDIO
    TITLE "TOEIC LR Kinnojyukugo_05_367"
    INDEX 01 08:10:07
  TRACK 368 AUDIO
    TITLE "TOEIC LR Kinnojyukugo_05_368"
    INDEX 01 08:10:46
  TRACK 369 AUDIO
    TITLE "TOEIC LR Kinnojyukugo_05_369"
    INDEX 01 08:13:21
  TRACK 370 AUDIO
    TITLE "TOEIC LR Kinnojyukugo_05_370"
    INDEX 01 08:13:48
  TRACK 371 AUDIO
    TITLE "TOEIC LR Kinnojyukugo_05_371"
    INDEX 01 08:16:25
  TRACK 372 AUDIO
    TITLE "TOEIC LR Kinnojyukugo_05_372"
    INDEX 01 08:17:24
  TRACK 373 AUDIO
    TITLE "TOEIC LR Kinnojyukugo_05_373"
    INDEX 01 08:19:35
  TRACK 374 AUDIO
    TITLE "TOEIC LR Kinnojyukugo_05_374"
    INDEX 01 08:20:01
  TRACK 375 AUDIO
    TITLE "TOEIC LR Kinnojyukugo_05_375"
    INDEX 01 08:24:32
  TRACK 376 AUDIO
    TITLE "TOEIC LR Kinnojyukugo_05_376"
    INDEX 01 08:24:70
  TRACK 377 AUDIO
    TITLE "TOEIC LR Kinnojyukugo_05_377"
    INDEX 01 08:27:29
  TRACK 378 AUDIO
    TITLE "TOEIC LR Kinnojyukugo_05_378"
    INDEX 01 08:27:64
  TRACK 379 AUDIO
    TITLE "TOEIC LR Kinnojyukugo_05_379"
    INDEX 01 08:30:21
  TRACK 380 AUDIO
    TITLE "TOEIC LR Kinnojyukugo_05_380"
    INDEX 01 08:30:47
  TRACK 381 AUDIO
    TITLE "TOEIC LR Kinnojyukugo_05_381"
    INDEX 01 08:33:04
  TRACK 382 AUDIO
    TITLE "TOEIC LR Kinnojyukugo_05_382"
    INDEX 01 08:34:05
  TRACK 383 AUDIO
    TITLE "TOEIC LR Kinnojyukugo_05_383"
    INDEX 01 08:35:42
  TRACK 384 AUDIO
    TITLE "TOEIC LR Kinnojyukugo_05_384"
    INDEX 01 08:36:04
  TRACK 385 AUDIO
    TITLE "TOEIC LR Kinnojyukugo_05_385"
    INDEX 01 08:37:21
  TRACK 386 AUDIO
    TITLE "TOEIC LR Kinnojyukugo_05_386"
    INDEX 01 08:37:62
  TRACK 387 AUDIO
    TITLE "TOEIC LR Kinnojyukugo_05_387"
    INDEX 01 08:39:71
  TRACK 388 AUDIO
    TITLE "TOEIC LR Kinnojyukugo_05_388"
    INDEX 01 08:40:35
  TRACK 389 AUDIO
    TITLE "TOEIC LR Kinnojyukugo_05_389"
    INDEX 01 08:42:58
  TRACK 390 AUDIO
    TITLE "TOEIC LR Kinnojyukugo_05_390"
    INDEX 01 08:43:08
  TRACK 391 AUDIO
    TITLE "TOEIC LR Kinnojyukugo_05_391"
    INDEX 01 08:45:31
  TRACK 392 AUDIO
    TITLE "TOEIC LR Kinnojyukugo_05_392"
    INDEX 01 08:46:30
  TRACK 393 AUDIO
    TITLE "TOEIC LR Kinnojyukugo_05_393"
    INDEX 01 08:47:55
  TRACK 394 AUDIO
    TITLE "TOEIC LR Kinnojyukugo_05_394"
    INDEX 01 08:48:17
  TRACK 395 AUDIO
    TITLE "TOEIC LR Kinnojyukugo_05_395"
    INDEX 01 08:50:02
  TRACK 396 AUDIO
    TITLE "TOEIC LR Kinnojyukugo_05_396"
    INDEX 01 08:50:36
  TRACK 397 AUDIO
    TITLE "TOEIC LR Kinnojyukugo_05_397"
    INDEX 01 08:52:48
  TRACK 398 AUDIO
    TITLE "TOEIC LR Kinnojyukugo_05_398"
    INDEX 01 08:53:12
  TRACK 399 AUDIO
    TITLE "TOEIC LR Kinnojyukugo_05_399"
    INDEX 01 08:55:09
  TRACK 400 AUDIO
    TITLE "TOEIC LR Kinnojyukugo_05_400"
    INDEX 01 08:55:35
  TRACK 401 AUDIO
    TITLE "TOEIC LR Kinnojyukugo_05_401"
    INDEX 01 08:57:32
  TRACK 402 AUDIO
    TITLE "TOEIC LR Kinnojyukugo_05_402"
    INDEX 01 08:58:33
  TRACK 403 AUDIO
    TITLE "TOEIC LR Kinnojyukugo_05_403"
    INDEX 01 08:59:54
  TRACK 404 AUDIO
    TITLE "TOEIC LR Kinnojyukugo_05_404"
    INDEX 01 09:00:18
  TRACK 405 AUDIO
    TITLE "TOEIC LR Kinnojyukugo_05_405"
    INDEX 01 09:02:45
  TRACK 406 AUDIO
    TITLE "TOEIC LR Kinnojyukugo_05_406"
    INDEX 01 09:03:21
  TRACK 407 AUDIO
    TITLE "TOEIC LR Kinnojyukugo_05_407"
    INDEX 01 09:05:53
  TRACK 408 AUDIO
    TITLE "TOEIC LR Kinnojyukugo_05_408"
    INDEX 01 09:06:15
  TRACK 409 AUDIO
    TITLE "TOEIC LR Kinnojyukugo_05_409"
    INDEX 01 09:08:43
  TRACK 410 AUDIO
    TITLE "TOEIC LR Kinnojyukugo_05_410"
    INDEX 01 09:08:71
  TRACK 411 AUDIO
    TITLE "TOEIC LR Kinnojyukugo_05_411"
    INDEX 01 09:11:24
  TRACK 412 AUDIO
    TITLE "TOEIC LR Kinnojyukugo_05_412"
    INDEX 01 09:12:27
  TRACK 413 AUDIO
    TITLE "TOEIC LR Kinnojyukugo_05_413"
    INDEX 01 09:13:64
  TRACK 414 AUDIO
    TITLE "TOEIC LR Kinnojyukugo_05_414"
    INDEX 01 09:14:28
  TRACK 415 AUDIO
    TITLE "TOEIC LR Kinnojyukugo_05_415"
    INDEX 01 09:15:63
  TRACK 416 AUDIO
    TITLE "TOEIC LR Kinnojyukugo_05_416"
    INDEX 01 09:16:25
  TRACK 417 AUDIO
    TITLE "TOEIC LR Kinnojyukugo_05_417"
    INDEX 01 09:18:10
  TRACK 418 AUDIO
    TITLE "TOEIC LR Kinnojyukugo_05_418"
    INDEX 01 09:18:54
  TRACK 419 AUDIO
    TITLE "TOEIC LR Kinnojyukugo_05_419"
    INDEX 01 09:20:54
  TRACK 420 AUDIO
    TITLE "TOEIC LR Kinnojyukugo_05_420"
    INDEX 01 09:21:13
  TRACK 421 AUDIO
    TITLE "TOEIC LR Kinnojyukugo_05_421"
    INDEX 01 09:23:12
  TRACK 422 AUDIO
    TITLE "TOEIC LR Kinnojyukugo_05_422"
    INDEX 01 09:24:13
  TRACK 423 AUDIO
    TITLE "TOEIC LR Kinnojyukugo_05_423"
    INDEX 01 09:25:42
  TRACK 424 AUDIO
    TITLE "TOEIC LR Kinnojyukugo_05_424"
    INDEX 01 09:26:08
  TRACK 425 AUDIO
    TITLE "TOEIC LR Kinnojyukugo_05_425"
    INDEX 01 09:27:25
  TRACK 426 AUDIO
    TITLE "TOEIC LR Kinnojyukugo_05_426"
    INDEX 01 09:27:62
  TRACK 427 AUDIO
    TITLE "TOEIC LR Kinnojyukugo_05_427"
    INDEX 01 09:29:61
  TRACK 428 AUDIO
    TITLE "TOEIC LR Kinnojyukugo_05_428"
    INDEX 01 09:30:25
  TRACK 429 AUDIO
    TITLE "TOEIC LR Kinnojyukugo_05_429"
    INDEX 01 09:32:28
  TRACK 430 AUDIO
    TITLE "TOEIC LR Kinnojyukugo_05_430"
    INDEX 01 09:32:58
  TRACK 431 AUDIO
    TITLE "TOEIC LR Kinnojyukugo_05_431"
    INDEX 01 09:34:58
  TRACK 432 AUDIO
    TITLE "TOEIC LR Kinnojyukugo_05_432"
    INDEX 01 09:35:60
  TRACK 433 AUDIO
    TITLE "TOEIC LR Kinnojyukugo_05_433"
    INDEX 01 09:37:12
  TRACK 434 AUDIO
    TITLE "TOEIC LR Kinnojyukugo_05_434"
    INDEX 01 09:37:45
  TRACK 435 AUDIO
    TITLE "TOEIC LR Kinnojyukugo_05_435"
    INDEX 01 09:40:14
  TRACK 436 AUDIO
    TITLE "TOEIC LR Kinnojyukugo_05_436"
    INDEX 01 09:40:53
  TRACK 437 AUDIO
    TITLE "TOEIC LR Kinnojyukugo_05_437"
    INDEX 01 09:42:15
  TRACK 438 AUDIO
    TITLE "TOEIC LR Kinnojyukugo_05_438"
    INDEX 01 09:42:56
  TRACK 439 AUDIO
    TITLE "TOEIC LR Kinnojyukugo_05_439"
    INDEX 01 09:44:39
  TRACK 440 AUDIO
    TITLE "TOEIC LR Kinnojyukugo_05_440"
    INDEX 01 09:44:67
  TRACK 441 AUDIO
    TITLE "TOEIC LR Kinnojyukugo_05_441"
    INDEX 01 09:46:50
  TRACK 442 AUDIO
    TITLE "TOEIC LR Kinnojyukugo_05_442"
    INDEX 01 09:47:51
  TRACK 443 AUDIO
    TITLE "TOEIC LR Kinnojyukugo_05_443"
    INDEX 01 09:49:05
  TRACK 444 AUDIO
    TITLE "TOEIC LR Kinnojyukugo_05_444"
    INDEX 01 09:49:44
  TRACK 445 AUDIO
    TITLE "TOEIC LR Kinnojyukugo_05_445"
    INDEX 01 09:52:43
  TRACK 446 AUDIO
    TITLE "TOEIC LR Kinnojyukugo_05_446"
    INDEX 01 09:53:05
  TRACK 447 AUDIO
    TITLE "TOEIC LR Kinnojyukugo_05_447"
    INDEX 01 09:55:02
  TRACK 448 AUDIO
    TITLE "TOEIC LR Kinnojyukugo_05_448"
    INDEX 01 09:55:41
  TRACK 449 AUDIO
    TITLE "TOEIC LR Kinnojyukugo_05_449"
    INDEX 01 09:57:16
  TRACK 450 AUDIO
    TITLE "TOEIC LR Kinnojyukugo_05_450"
    INDEX 01 09:57:44
  TRACK 451 AUDIO
    TITLE "TOEIC LR Kinnojyukugo_05_451"
    INDEX 01 09:59:19
  TRACK 452 AUDIO
    TITLE "TOEIC LR Kinnojyukugo_05_452"
    INDEX 01 10:00:21
  TRACK 453 AUDIO
    TITLE "TOEIC LR Kinnojyukugo_05_453"
    INDEX 01 10:01:47
  TRACK 454 AUDIO
    TITLE "TOEIC LR Kinnojyukugo_05_454"
    INDEX 01 10:02:10
  TRACK 455 AUDIO
    TITLE "TOEIC LR Kinnojyukugo_05_455"
    INDEX 01 10:03:21
  TRACK 456 AUDIO
    TITLE "TOEIC LR Kinnojyukugo_05_456"
    INDEX 01 10:03:60
  TRACK 457 AUDIO
    TITLE "TOEIC LR Kinnojyukugo_05_457"
    INDEX 01 10:05:02
  TRACK 458 AUDIO
    TITLE "TOEIC LR Kinnojyukugo_05_458"
    INDEX 01 10:05:39
  TRACK 459 AUDIO
    TITLE "TOEIC LR Kinnojyukugo_05_459"
    INDEX 01 10:07:38
  TRACK 460 AUDIO
    TITLE "TOEIC LR Kinnojyukugo_05_460"
    INDEX 01 10:07:62
  TRACK 461 AUDIO
    TITLE "TOEIC LR Kinnojyukugo_05_461"
    INDEX 01 10:09:61
  TRACK 462 AUDIO
    TITLE "TOEIC LR Kinnojyukugo_05_462"
    INDEX 01 10:10:60
  TRACK 463 AUDIO
    TITLE "TOEIC LR Kinnojyukugo_05_463"
    INDEX 01 10:12:04
  TRACK 464 AUDIO
    TITLE "TOEIC LR Kinnojyukugo_05_464"
    INDEX 01 10:12:43
  TRACK 465 AUDIO
    TITLE "TOEIC LR Kinnojyukugo_05_465"
    INDEX 01 10:13:74
  TRACK 466 AUDIO
    TITLE "TOEIC LR Kinnojyukugo_05_466"
    INDEX 01 10:14:38
  TRACK 467 AUDIO
    TITLE "TOEIC LR Kinnojyukugo_05_467"
    INDEX 01 10:17:27
  TRACK 468 AUDIO
    TITLE "TOEIC LR Kinnojyukugo_05_468"
    INDEX 01 10:17:64
  TRACK 469 AUDIO
    TITLE "TOEIC LR Kinnojyukugo_05_469"
    INDEX 01 10:20:62
  TRACK 470 AUDIO
    TITLE "TOEIC LR Kinnojyukugo_05_470"
    INDEX 01 10:21:15
  TRACK 471 AUDIO
    TITLE "TOEIC LR Kinnojyukugo_05_471"
    INDEX 01 10:24:09
  TRACK 472 AUDIO
    TITLE "TOEIC LR Kinnojyukugo_05_472"
    INDEX 01 10:25:19
  TRACK 473 AUDIO
    TITLE "TOEIC LR Kinnojyukugo_05_473"
    INDEX 01 10:27:12
  TRACK 474 AUDIO
    TITLE "TOEIC LR Kinnojyukugo_05_474"
    INDEX 01 10:27:53
  TRACK 475 AUDIO
    TITLE "TOEIC LR Kinnojyukugo_05_475"
    INDEX 01 10:29:50
  TRACK 476 AUDIO
    TITLE "TOEIC LR Kinnojyukugo_05_476"
    INDEX 01 10:30:12
  TRACK 477 AUDIO
    TITLE "TOEIC LR Kinnojyukugo_05_477"
    INDEX 01 10:32:56
  TRACK 478 AUDIO
    TITLE "TOEIC LR Kinnojyukugo_05_478"
    INDEX 01 10:33:20
  TRACK 479 AUDIO
    TITLE "TOEIC LR Kinnojyukugo_05_479"
    INDEX 01 10:35:62
  TRACK 480 AUDIO
    TITLE "TOEIC LR Kinnojyukugo_05_480"
    INDEX 01 10:36:12
  TRACK 481 AUDIO
    TITLE "TOEIC LR Kinnojyukugo_05_481"
    INDEX 01 10:38:56
  TRACK 482 AUDIO
    TITLE "TOEIC LR Kinnojyukugo_05_482"
    INDEX 01 10:39:58
  TRACK 483 AUDIO
    TITLE "TOEIC LR Kinnojyukugo_05_483"
    INDEX 01 10:42:11
  TRACK 484 AUDIO
    TITLE "TOEIC LR Kinnojyukugo_05_484"
    INDEX 01 10:42:56
  TRACK 485 AUDIO
    TITLE "TOEIC LR Kinnojyukugo_05_485"
    INDEX 01 10:44:69
  TRACK 486 AUDIO
    TITLE "TOEIC LR Kinnojyukugo_05_486"
    INDEX 01 10:45:33
  TRACK 487 AUDIO
    TITLE "TOEIC LR Kinnojyukugo_05_487"
    INDEX 01 10:47:59
  TRACK 488 AUDIO
    TITLE "TOEIC LR Kinnojyukugo_05_488"
    INDEX 01 10:48:24
  TRACK 489 AUDIO
    TITLE "TOEIC LR Kinnojyukugo_05_489"
    INDEX 01 10:50:58
  TRACK 490 AUDIO
    TITLE "TOEIC LR Kinnojyukugo_05_490"
    INDEX 01 10:51:08
  TRACK 491 AUDIO
    TITLE "TOEIC LR Kinnojyukugo_05_491"
    INDEX 01 10:53:42
  TRACK 492 AUDIO
    TITLE "TOEIC LR Kinnojyukugo_05_492"
    INDEX 01 10:54:42
  TRACK 493 AUDIO
    TITLE "TOEIC LR Kinnojyukugo_05_493"
    INDEX 01 10:56:64
  TRACK 494 AUDIO
    TITLE "TOEIC LR Kinnojyukugo_05_494"
    INDEX 01 10:57:26
  TRACK 495 AUDIO
    TITLE "TOEIC LR Kinnojyukugo_05_495"
    INDEX 01 10:59:17
  TRACK 496 AUDIO
    TITLE "TOEIC LR Kinnojyukugo_05_496"
    INDEX 01 10:59:63
  TRACK 497 AUDIO
    TITLE "TOEIC LR Kinnojyukugo_05_497"
    INDEX 01 11:02:00
  TRACK 498 AUDIO
    TITLE "TOEIC LR Kinnojyukugo_05_498"
    INDEX 01 11:02:37
  TRACK 499 AUDIO
    TITLE "TOEIC LR Kinnojyukugo_05_499"
    INDEX 01 11:05:02
  TRACK 500 AUDIO
    TITLE "TOEIC LR Kinnojyukugo_05_500"
    INDEX 01 11:05:28
  TRACK 501 AUDIO
    TITLE "TOEIC LR Kinnojyukugo_05_501"
    INDEX 01 11:07:68
  TRACK 502 AUDIO
    TITLE "TOEIC LR Kinnojyukugo_05_502"
    INDEX 01 11:08:67
  TRACK 503 AUDIO
    TITLE "TOEIC LR Kinnojyukugo_05_503"
    INDEX 01 11:10:11
  TRACK 504 AUDIO
    TITLE "TOEIC LR Kinnojyukugo_05_504"
    INDEX 01 11:10:47
  TRACK 505 AUDIO
    TITLE "TOEIC LR Kinnojyukugo_05_505"
    INDEX 01 11:13:33
  TRACK 506 AUDIO
    TITLE "TOEIC LR Kinnojyukugo_05_506"
    INDEX 01 11:13:72
  TRACK 507 AUDIO
    TITLE "TOEIC LR Kinnojyukugo_05_507"
    INDEX 01 11:15:50
  TRACK 508 AUDIO
    TITLE "TOEIC LR Kinnojyukugo_05_508"
    INDEX 01 11:16:14
  TRACK 509 AUDIO
    TITLE "TOEIC LR Kinnojyukugo_05_509"
    INDEX 01 11:18:40
  TRACK 510 AUDIO
    TITLE "TOEIC LR Kinnojyukugo_05_510"
    INDEX 01 11:18:66
  TRACK 511 AUDIO
    TITLE "TOEIC LR Kinnojyukugo_05_511"
    INDEX 01 11:21:15
  TRACK 512 AUDIO
    TITLE "TOEIC LR Kinnojyukugo_05_512"
    INDEX 01 11:22:17
  TRACK 513 AUDIO
    TITLE "TOEIC LR Kinnojyukugo_05_513"
    INDEX 01 11:24:04
  TRACK 514 AUDIO
    TITLE "TOEIC LR Kinnojyukugo_05_514"
    INDEX 01 11:24:47
  TRACK 515 AUDIO
    TITLE "TOEIC LR Kinnojyukugo_05_515"
    INDEX 01 11:26:57
  TRACK 516 AUDIO
    TITLE "TOEIC LR Kinnojyukugo_05_516"
    INDEX 01 11:27:22
  TRACK 517 AUDIO
    TITLE "TOEIC LR Kinnojyukugo_05_517"
    INDEX 01 11:30:18
  TRACK 518 AUDIO
    TITLE "TOEIC LR Kinnojyukugo_05_518"
    INDEX 01 11:30:59
  TRACK 519 AUDIO
    TITLE "TOEIC LR Kinnojyukugo_05_519"
    INDEX 01 11:33:57
  TRACK 520 AUDIO
    TITLE "TOEIC LR Kinnojyukugo_05_520"
    INDEX 01 11:34:08
  TRACK 521 AUDIO
    TITLE "TOEIC LR Kinnojyukugo_05_521"
    INDEX 01 11:37:04
  TRACK 522 AUDIO
    TITLE "TOEIC LR Kinnojyukugo_05_522"
    INDEX 01 11:38:06
  TRACK 523 AUDIO
    TITLE "TOEIC LR Kinnojyukugo_05_523"
    INDEX 01 11:40:22
  TRACK 524 AUDIO
    TITLE "TOEIC LR Kinnojyukugo_05_524"
    INDEX 01 11:40:60
  TRACK 525 AUDIO
    TITLE "TOEIC LR Kinnojyukugo_05_525"
    INDEX 01 11:43:19
  TRACK 526 AUDIO
    TITLE "TOEIC LR Kinnojyukugo_05_526"
    INDEX 01 11:43:58
  TRACK 527 AUDIO
    TITLE "TOEIC LR Kinnojyukugo_05_527"
    INDEX 01 11:46:35
  TRACK 528 AUDIO
    TITLE "TOEIC LR Kinnojyukugo_05_528"
    INDEX 01 11:46:72
  TRACK 529 AUDIO
    TITLE "TOEIC LR Kinnojyukugo_05_529"
    INDEX 01 11:49:19
  TRACK 530 AUDIO
    TITLE "TOEIC LR Kinnojyukugo_05_530"
    INDEX 01 11:49:45
  TRACK 531 AUDIO
    TITLE "TOEIC LR Kinnojyukugo_05_531"
    INDEX 01 11:51:67
  TRACK 532 AUDIO
    TITLE "TOEIC LR Kinnojyukugo_05_532"
    INDEX 01 11:52:69
  TRACK 533 AUDIO
    TITLE "TOEIC LR Kinnojyukugo_05_533"
    INDEX 01 11:55:26
  TRACK 534 AUDIO
    TITLE "TOEIC LR Kinnojyukugo_05_534"
    INDEX 01 11:55:63
  TRACK 535 AUDIO
    TITLE "TOEIC LR Kinnojyukugo_05_535"
    INDEX 01 11:58:16
  TRACK 536 AUDIO
    TITLE "TOEIC LR Kinnojyukugo_05_536"
    INDEX 01 11:58:55
  TRACK 537 AUDIO
    TITLE "TOEIC LR Kinnojyukugo_05_537"
    INDEX 01 12:01:26
  TRACK 538 AUDIO
    TITLE "TOEIC LR Kinnojyukugo_05_538"
    INDEX 01 12:01:66
  TRACK 539 AUDIO
    TITLE "TOEIC LR Kinnojyukugo_05_539"
    INDEX 01 12:04:09
  TRACK 540 AUDIO
    TITLE "TOEIC LR Kinnojyukugo_05_540"
    INDEX 01 12:04:35
  TRACK 541 AUDIO
    TITLE "TOEIC LR Kinnojyukugo_05_541"
    INDEX 01 12:06:55
  TRACK 542 AUDIO
    TITLE "TOEIC LR Kinnojyukugo_05_542"
    INDEX 01 12:07:54
  TRACK 543 AUDIO
    TITLE "TOEIC LR Kinnojyukugo_05_543"
    INDEX 01 12:10:04
  TRACK 544 AUDIO
    TITLE "TOEIC LR Kinnojyukugo_05_544"
    INDEX 01 12:10:39
  TRACK 545 AUDIO
    TITLE "TOEIC LR Kinnojyukugo_05_545"
    INDEX 01 12:12:61
  TRACK 546 AUDIO
    TITLE "TOEIC LR Kinnojyukugo_05_546"
    INDEX 01 12:13:28
  TRACK 547 AUDIO
    TITLE "TOEIC LR Kinnojyukugo_05_547"
    INDEX 01 12:16:71
  TRACK 548 AUDIO
    TITLE "TOEIC LR Kinnojyukugo_05_548"
    INDEX 01 12:17:33
  TRACK 549 AUDIO
    TITLE "TOEIC LR Kinnojyukugo_05_549"
    INDEX 01 12:21:04
  TRACK 550 AUDIO
    TITLE "TOEIC LR Kinnojyukugo_05_550"
    INDEX 01 12:21:29
  TRACK 551 AUDIO
    TITLE "TOEIC LR Kinnojyukugo_05_551"
    INDEX 01 12:25:01
